<svg width="37" height="33" viewBox="0 0 37 33" fill="none" xmlns="http://www.w3.org/2000/svg">
<path d="M27.3092 5.44353L36.1834 14.4891C36.7037 15.0194 37 15.7487 37 16.5C37 17.2513 36.7037 17.9806 36.1834 18.5109L27.3092 27.5565C26.8467 28.0279 26.2252 28.2857 25.5748 28.2857C24.2234 28.2857 23.125 27.1661 23.125 25.7886V21.2143H13.875C12.5959 21.2143 11.5625 20.1609 11.5625 18.8571V14.1429C11.5625 12.8391 12.5959 11.7857 13.875 11.7857H23.125V7.21138C23.125 5.83393 24.2234 4.71429 25.5748 4.71429C26.2252 4.71429 26.8467 4.97946 27.3092 5.44353ZM11.5625 4.71429H6.9375C5.6584 4.71429 4.625 5.76763 4.625 7.07143V25.9286C4.625 27.2324 5.6584 28.2857 6.9375 28.2857H11.5625C12.8416 28.2857 13.875 29.3391 13.875 30.6429C13.875 31.9467 12.8416 33 11.5625 33H6.9375C3.10742 33 0 29.8326 0 25.9286V7.07143C0 3.16741 3.10742 0 6.9375 0H11.5625C12.8416 0 13.875 1.05335 13.875 2.35714C13.875 3.66094 12.8416 4.71429 11.5625 4.71429Z" fill="url(#paint0_linear_204_6)"/>
<defs>
<linearGradient id="paint0_linear_204_6" x1="37" y1="4.81976" x2="1.4617e-07" y2="28.1802" gradientUnits="userSpaceOnUse">
<stop stop-color="#FF0000"/>
<stop offset="1" stop-color="#F24D7A"/>
</linearGradient>
</defs>
</svg>
